<?xml version="1.0" encoding="UTF-8" standalone="no"?>
<!DOCTYPE svg PUBLIC "-//W3C//DTD SVG 1.1//EN" "http://www.w3.org/Graphics/SVG/1.1/DTD/svg11.dtd">
<svg width="100%" height="100%" viewBox="0 0 128 128" version="1.1" xmlns="http://www.w3.org/2000/svg" xmlns:xlink="http://www.w3.org/1999/xlink" xml:space="preserve" xmlns:serif="http://www.serif.com/" style="fill-rule:evenodd;clip-rule:evenodd;stroke-linejoin:round;stroke-miterlimit:2;">
    <g transform="matrix(5.66922,0,0,5.66922,-4.03062,-4.03062)">
        <path d="M22,5.18L10.59,16.6L6.35,12.36L7.76,10.95L10.59,13.78L20.59,3.78L22,5.18ZM19.79,10.22C19.92,10.79 20,11.39 20,12C20,16.42 16.42,20 12,20C7.58,20 4,16.42 4,12C4,7.58 7.58,4 12,4C13.58,4 15.04,4.46 16.28,5.25L17.72,3.81C16.1,2.67 14.13,2 12,2C6.48,2 2,6.48 2,12C2,17.52 6.48,22 12,22C17.52,22 22,17.52 22,12C22,10.81 21.78,9.67 21.4,8.61L19.79,10.22Z" style="fill:rgb(152,152,152);fill-rule:nonzero;"/>
    </g>
</svg>
